<svg version="1.2" baseProfile="tiny-ps" xmlns="http://www.w3.org/2000/svg" viewBox="0 0 2160 1000" width="2160" height="1000">
	<title>logobranca-svg</title>
	<style>
		tspan { white-space:pre }
		.shp0 { fill: #ffffff } 
		.txt1 { font-size: 13px;fill: #000000;font-weight: 400;font-family: "LiberationSans", "Liberation Sans" } 
		.shp2 { fill: #f7de22 } 
		.shp3 { fill: #032e74 } 
		.shp4 { fill: #009c3b } 
	</style>
	<g id="Layer 2">
		<g id="&lt;Group&gt;">
			<path id="&lt;Compound Path&gt;" class="shp0" d="M458.82 511.46L490.58 577.41C465.84 598.11 429.53 608.33 381.61 608.07C288.07 607.56 202.58 528.97 203.11 431.95C203.65 334.5 289.59 256.04 383.53 256.55C431.45 256.81 467.65 267.42 492.16 288.38L459.68 353.99C442.09 339.92 420.46 332.81 394.76 332.67C318.88 332.26 285.26 386.34 285.02 431.56C284.77 477.2 317.79 531.66 393.67 532.07C419.37 532.22 441.08 525.34 458.82 511.46Z" />
			<text id="Text layer 40" style="transform: matrix(1,0,0,1,3032,384)" >
				<tspan x="0" y="14.56" class="txt1">			</tspan>
			</text>
			<path id="&lt;Compound Path&gt;" fill-rule="evenodd" class="shp0" d="M557.75 261.61C534.47 261.48 515.5 280.7 515.36 304.55C515.23 328.39 534 347.82 557.28 347.95C580.58 348.07 599.54 328.85 599.67 305.01C599.8 281.16 581.05 261.74 557.75 261.61ZM519.36 602.65L590.42 603.04L591.57 392.12L520.51 391.74L519.36 602.65Z" />
			<path id="&lt;Compound Path&gt;" class="shp0" d="M641.76 392.4L712.82 392.79L712.69 414.99L713.49 415C729.65 398.63 750.18 386.83 772.67 386.95C810.4 387.16 862.9 406.77 862.57 465.56L861.81 604.52L790.75 604.14L791.41 484.91C791.52 463.94 777.58 443.72 754.69 443.59C733.41 443.47 712.43 463.5 712.31 484.48L711.66 603.7L640.6 603.31L641.76 392.4Z" />
			<path id="&lt;Compound Path&gt;" fill-rule="evenodd" class="shp0" d="M965.52 509.71C965.34 542.18 991.78 553.43 1009.85 553.53C1032.73 553.66 1042.79 549.19 1060.16 530.37L1111.41 556.96C1087.9 596.71 1050.08 611.72 1004.31 611.47C942.09 611.13 891.37 560.7 891.7 499.44C892.04 437.76 943.31 387.88 1005.53 388.22C1068.16 388.57 1115.73 426.65 1115.32 500.66C1115.31 503.53 1115.28 508.06 1114.87 510.52L965.52 509.71ZM1046.04 469.85C1042.95 447.63 1028.16 435.63 1007.28 435.51C982.79 435.38 969.06 450.1 967.75 469.42L1046.04 469.85Z" />
		</g>
		<g id="&lt;Group&gt;">
			<path id="&lt;Compound Path&gt;" class="shp0" d="M535.53 662.18L513.65 662.06L513.58 675L534.53 675.11L534.46 688.13L513.51 688.01L513.44 701.11L535.31 701.23L535.24 714.25L498.88 714.05L499.23 648.96L535.6 649.16L535.53 662.18Z" />
			<path id="&lt;Compound Path&gt;" class="shp0" d="M543.78 673.83L557.42 673.9L557.4 678.16L557.55 678.17C560.64 675.02 564.59 672.75 568.9 672.78C576.15 672.82 586.21 676.58 586.15 687.86L586.01 714.53L572.37 714.45L572.5 691.57C572.52 687.55 569.84 683.67 565.45 683.65C561.37 683.63 557.35 687.47 557.32 691.49L557.2 714.37L543.56 714.3L543.78 673.83Z" />
			<path id="&lt;Compound Path&gt;" class="shp0" d="M596.63 659.05L610.27 659.12L610.19 674.19L618.5 674.24L618.45 684.89L610.13 684.84L610.06 697.7C610.04 701.49 610.96 703.3 613.11 703.32C614.29 703.32 615.43 702.9 616.5 702.07L619.83 713.37C616.9 715.04 613.55 715.86 609.81 715.84C598.94 715.78 596.37 707.48 596.4 700.31L596.49 684.77L590.79 684.73L590.85 674.09L596.55 674.12L596.63 659.05Z" />
			<path id="&lt;Compound Path&gt;" class="shp0" d="M624.67 674.27L638.31 674.35L638.27 680.18L638.42 680.18C641.33 675.52 645.38 673.19 650.56 673.22C653.95 673.24 656.82 674.1 659.17 675.79L653.41 687.6C651.73 686.12 649.36 685.37 646.33 685.35C639.25 685.31 638.21 692.49 638.2 693.52L638.08 714.81L624.45 714.74L624.67 674.27Z" />
			<path id="&lt;Compound Path&gt;" fill-rule="evenodd" class="shp0" d="M673.78 696.7C673.74 702.93 678.81 705.1 682.28 705.12C686.67 705.14 688.6 704.28 691.94 700.67L701.77 705.77C697.26 713.4 690 716.28 681.22 716.23C669.28 716.16 659.55 706.49 659.61 694.73C659.68 682.9 669.51 673.33 681.45 673.39C693.47 673.46 702.59 680.77 702.52 694.97C702.51 695.52 702.51 696.39 702.44 696.86L673.78 696.7ZM689.22 689.06C688.63 684.79 685.79 682.49 681.79 682.47C677.09 682.44 674.45 685.27 674.21 688.97L689.22 689.06Z" />
			<path id="&lt;Compound Path&gt;" class="shp0" d="M711.03 659.67L724.67 659.75L724.58 674.82L732.91 674.86L732.85 685.51L724.53 685.47L724.46 698.32C724.43 702.11 725.36 703.93 727.51 703.94C728.69 703.95 729.82 703.53 730.91 702.7L734.23 713.99C731.3 715.66 727.95 716.48 724.21 716.46C713.34 716.4 710.77 708.11 710.81 700.93L710.89 685.39L705.19 685.36L705.25 674.71L710.95 674.74L711.03 659.67Z" />
			<path id="&lt;Compound Path&gt;" fill-rule="evenodd" class="shp0" d="M750.27 697.12C750.24 703.35 755.31 705.52 758.78 705.53C763.17 705.56 765.1 704.7 768.43 701.09L778.27 706.19C773.76 713.81 766.5 716.69 757.71 716.65C745.78 716.58 736.05 706.91 736.11 695.15C736.18 683.32 746.01 673.74 757.95 673.81C769.97 673.88 779.1 681.19 779.02 695.38C779.02 695.94 779.01 696.81 778.93 697.28L750.27 697.12ZM765.73 689.47C765.13 685.21 762.3 682.91 758.29 682.88C753.59 682.86 750.95 685.69 750.7 689.39L765.73 689.47Z" />
			<path id="&lt;Compound Path&gt;" class="shp0" d="M785.37 675.15L799 675.22L798.98 679.48L799.14 679.49C802.24 676.34 806.18 674.07 810.49 674.1C817.73 674.14 827.8 677.9 827.74 689.18L827.59 715.85L813.96 715.77L814.08 692.89C814.1 688.87 811.43 684.99 807.04 684.97C802.96 684.95 798.93 688.79 798.91 692.81L798.78 715.69L785.15 715.62L785.37 675.15Z" />
			<path id="&lt;Compound Path&gt;" fill-rule="evenodd" class="shp0" d="M843.44 650.46C838.97 650.43 835.33 654.12 835.3 658.69C835.28 663.27 838.88 667 843.35 667.02C847.82 667.05 851.46 663.36 851.48 658.78C851.51 654.2 847.91 650.48 843.44 650.46ZM836.07 715.89L849.71 715.97L849.93 675.5L836.29 675.43L836.07 715.89Z" />
			<path id="&lt;Compound Path&gt;" class="shp0" d="M859.56 675.55L873.2 675.63L873.17 679.89L873.32 679.89C876.42 676.75 880.36 674.48 884.67 674.5C889.92 674.53 895.69 676.54 898.43 681.99C902.62 676.89 907.25 674.63 911.57 674.65C918.81 674.69 926.95 678.45 926.89 689.72L926.74 716.39L913.11 716.31L913.23 693.43C913.25 689.42 911.2 685.85 906.34 685.83C902.03 685.8 900.16 689.03 899.99 692.1L899.86 716.24L886.22 716.17L886.35 693.29C886.37 689.27 884.3 685.71 879.46 685.68C874.91 685.66 873.12 689.2 873.1 692.43L872.98 716.1L859.34 716.02L859.56 675.55Z" />
			<path id="&lt;Compound Path&gt;" fill-rule="evenodd" class="shp0" d="M946.64 698.19C946.61 704.43 951.68 706.59 955.15 706.61C959.54 706.63 961.47 705.77 964.8 702.17L974.64 707.26C970.13 714.89 962.87 717.77 954.08 717.72C942.15 717.65 932.42 707.98 932.48 696.22C932.55 684.39 942.38 674.82 954.32 674.88C966.33 674.95 975.46 682.26 975.38 696.46C975.38 697.02 975.38 697.88 975.3 698.35L946.64 698.19ZM962.09 690.55C961.5 686.28 958.66 683.98 954.65 683.96C949.96 683.93 947.32 686.76 947.07 690.46L962.09 690.55Z" />
			<path id="&lt;Compound Path&gt;" class="shp0" d="M981.74 676.22L995.37 676.3L995.35 680.56L995.51 680.56C998.61 677.41 1002.54 675.15 1006.86 675.17C1014.1 675.21 1024.17 678.98 1024.11 690.26L1023.96 716.92L1010.33 716.85L1010.45 693.96C1010.47 689.95 1007.8 686.07 1003.41 686.04C999.32 686.02 995.3 689.86 995.28 693.88L995.15 716.76L981.52 716.69L981.74 676.22Z" />
			<path id="&lt;Compound Path&gt;" class="shp0" d="M1034.59 661.44L1048.23 661.51L1048.15 676.59L1056.47 676.63L1056.41 687.28L1048.09 687.23L1048.02 700.09C1048 703.88 1048.91 705.7 1051.07 705.71C1052.24 705.72 1053.38 705.3 1054.46 704.47L1057.79 715.76C1054.85 717.43 1051.52 718.25 1047.76 718.23C1036.9 718.17 1034.33 709.88 1034.37 702.7L1034.45 687.16L1028.75 687.13L1028.81 676.48L1034.51 676.51L1034.59 661.44Z" />
			<path id="&lt;Compound Path&gt;" fill-rule="evenodd" class="shp0" d="M1083.59 675.59C1096.68 675.66 1107.11 684.56 1107.04 697.18C1106.98 709.64 1096.99 718.5 1083.35 718.43C1069.1 718.35 1059.6 709.39 1059.66 696.92C1059.73 684.3 1070.26 675.52 1083.59 675.59ZM1083.35 706.52C1088.66 706.54 1092.53 702.62 1092.56 697.1C1092.59 691.49 1088.53 687.54 1083.45 687.51C1078.29 687.48 1074.18 691.39 1074.15 697C1074.12 702.52 1077.8 706.49 1083.35 706.52Z" />
		</g>
		<g id="&lt;Group&gt;">
			<g id="&lt;Group&gt;">
				<path id="&lt;Path&gt;" class="shp2" d="M1948.24 543.38L1216.13 105.1C1204.45 98.1 1189.73 106.7 1189.66 120.56L1184.91 989.08C1184.84 1002.96 1199.45 1011.7 1211.22 1004.83L1948.07 574.59C1959.84 567.71 1959.93 550.37 1948.24 543.38Z" />
				<path id="&lt;Path&gt;" class="shp3" d="M1948.5 494.81L1216.4 56.54C1204.71 49.54 1190 58.12 1189.92 72L1185.18 940.51C1185.1 954.38 1199.72 963.13 1211.48 956.26L1948.33 526.01C1960.1 519.14 1960.2 501.81 1948.5 494.81Z" />
				<path id="&lt;Path&gt;" class="shp4" d="M1948.77 446.23L1216.66 7.96C1204.98 0.96 1190.26 9.55 1190.19 23.42L1185.44 891.94C1185.37 905.81 1199.98 914.56 1211.75 907.69L1948.6 477.44C1960.37 470.58 1960.46 453.23 1948.77 446.23Z" />
			</g>
			<g id="&lt;Group&gt;">
				<path id="&lt;Compound Path&gt;" fill-rule="evenodd" class="shp0" d="M1379.18 613.52C1351.08 613.37 1327.06 600.49 1311.9 583.14L1311.1 583.13L1310.97 606.98L1240.71 606.59L1242.64 253.02L1313.7 253.41L1312.81 416.22C1329.77 399.45 1352.7 390.12 1380.4 390.27C1440.62 390.6 1482.5 440.99 1482.16 502.66C1481.83 564.33 1439.4 613.85 1379.18 613.52ZM1358.79 452.23C1332.28 452.09 1310.89 472.53 1310.73 501.73C1310.58 530.5 1330.54 551.17 1358.25 551.32C1387.14 551.48 1406.53 531.02 1406.69 502.25C1406.85 473.05 1385.68 452.38 1358.79 452.23Z" />
				<path id="&lt;Compound Path&gt;" class="shp0" d="M1516.07 397.18L1587.13 397.56L1586.97 428L1587.77 428C1602.9 403.69 1623.97 391.6 1651 391.75C1668.67 391.85 1683.63 396.32 1695.9 405.15L1665.85 466.66C1657.06 458.94 1644.77 455.03 1628.97 454.94C1592.05 454.74 1586.62 492.13 1586.59 497.48L1585.98 608.48L1514.92 608.09L1516.07 397.18Z" />
			</g>
		</g>
	</g>
</svg>